<svg width="24" height="25" viewBox="0 0 24 25" fill="none" xmlns="http://www.w3.org/2000/svg">
<path fill-rule="evenodd" clip-rule="evenodd" d="M22.5001 12.9221C22.5001 12.7232 22.4211 12.5324 22.2805 12.3918C22.1398 12.2511 21.949 12.1721 21.7501 12.1721H4.06062L8.78112 7.45309C8.85085 7.38336 8.90617 7.30057 8.9439 7.20947C8.98164 7.11836 9.00107 7.02071 9.00107 6.92209C9.00107 6.82347 8.98164 6.72582 8.9439 6.63471C8.90617 6.54361 8.85085 6.46082 8.78112 6.39109C8.71139 6.32136 8.6286 6.26604 8.5375 6.22831C8.44639 6.19057 8.34874 6.17114 8.25012 6.17114C8.1515 6.17114 8.05385 6.19057 7.96274 6.22831C7.87163 6.26604 7.78885 6.32136 7.71912 6.39109L1.71912 12.3911C1.64928 12.4608 1.59386 12.5435 1.55605 12.6346C1.51824 12.7258 1.49878 12.8234 1.49878 12.9221C1.49878 13.0207 1.51824 13.1184 1.55605 13.2095C1.59386 13.3007 1.64928 13.3834 1.71912 13.4531L7.71912 19.4531C7.78885 19.5228 7.87163 19.5781 7.96274 19.6159C8.05385 19.6536 8.1515 19.673 8.25012 19.673C8.34874 19.673 8.44639 19.6536 8.5375 19.6159C8.6286 19.5781 8.71139 19.5228 8.78112 19.4531C8.85085 19.3834 8.90617 19.3006 8.9439 19.2095C8.98164 19.1184 9.00107 19.0207 9.00107 18.9221C9.00107 18.8235 8.98164 18.7258 8.9439 18.6347C8.90617 18.5436 8.85085 18.4608 8.78112 18.3911L4.06062 13.6721H21.7501C21.949 13.6721 22.1398 13.5931 22.2805 13.4524C22.4211 13.3118 22.5001 13.121 22.5001 12.9221Z" fill="black"/>
</svg>
