<svg width="24" height="25" viewBox="0 0 24 25" fill="none" xmlns="http://www.w3.org/2000/svg">
<path fill-rule="evenodd" clip-rule="evenodd" d="M1.5 12.9221C1.5 12.7232 1.57902 12.5324 1.71967 12.3918C1.86032 12.2511 2.05109 12.1721 2.25 12.1721H19.9395L15.219 7.45309C15.0782 7.31226 14.9991 7.12125 14.9991 6.92209C14.9991 6.72293 15.0782 6.53192 15.219 6.39109C15.3598 6.25026 15.5508 6.17114 15.75 6.17114C15.9492 6.17114 16.1402 6.25026 16.281 6.39109L22.281 12.3911C22.3508 12.4608 22.4063 12.5435 22.4441 12.6346C22.4819 12.7258 22.5013 12.8234 22.5013 12.9221C22.5013 13.0207 22.4819 13.1184 22.4441 13.2095C22.4063 13.3007 22.3508 13.3834 22.281 13.4531L16.281 19.4531C16.1402 19.5939 15.9492 19.673 15.75 19.673C15.5508 19.673 15.3598 19.5939 15.219 19.4531C15.0782 19.3123 14.9991 19.1213 14.9991 18.9221C14.9991 18.7229 15.0782 18.5319 15.219 18.3911L19.9395 13.6721H2.25C2.05109 13.6721 1.86032 13.5931 1.71967 13.4524C1.57902 13.3118 1.5 13.121 1.5 12.9221Z" fill="black"/>
</svg>
