<svg width="24" height="25" viewBox="0 0 24 25" fill="none" xmlns="http://www.w3.org/2000/svg">
<path fill-rule="evenodd" clip-rule="evenodd" d="M12 6.92212C12.1989 6.92212 12.3896 7.00114 12.5303 7.14179C12.671 7.28244 12.75 7.47321 12.75 7.67212V16.3616L15.969 13.1411C16.0387 13.0714 16.1215 13.0161 16.2126 12.9783C16.3037 12.9406 16.4014 12.9212 16.5 12.9212C16.5986 12.9212 16.6962 12.9406 16.7873 12.9783C16.8785 13.0161 16.9612 13.0714 17.031 13.1411C17.1007 13.2109 17.156 13.2936 17.1938 13.3847C17.2315 13.4759 17.2509 13.5735 17.2509 13.6721C17.2509 13.7707 17.2315 13.8684 17.1938 13.9595C17.156 14.0506 17.1007 14.1334 17.031 14.2031L12.531 18.7031C12.4613 18.773 12.3785 18.8284 12.2874 18.8662C12.1963 18.904 12.0986 18.9235 12 18.9235C11.9013 18.9235 11.8036 18.904 11.7125 18.8662C11.6214 18.8284 11.5386 18.773 11.469 18.7031L6.96897 14.2031C6.89924 14.1334 6.84392 14.0506 6.80619 13.9595C6.76845 13.8684 6.74902 13.7707 6.74902 13.6721C6.74902 13.5735 6.76845 13.4759 6.80619 13.3847C6.84392 13.2936 6.89924 13.2109 6.96897 13.1411C7.1098 13.0003 7.30081 12.9212 7.49997 12.9212C7.59859 12.9212 7.69624 12.9406 7.78735 12.9783C7.87846 13.0161 7.96124 13.0714 8.03097 13.1411L11.25 16.3616V7.67212C11.25 7.47321 11.329 7.28244 11.4696 7.14179C11.6103 7.00114 11.8011 6.92212 12 6.92212Z" fill="black"/>
</svg>
