<svg width="24" height="25" viewBox="0 0 24 25" fill="none" xmlns="http://www.w3.org/2000/svg">
<path fill-rule="evenodd" clip-rule="evenodd" d="M12 23.4221C12.1989 23.4221 12.3896 23.3431 12.5303 23.2024C12.671 23.0618 12.75 22.871 12.75 22.6721V4.98262L17.469 9.70312C17.6098 9.84395 17.8008 9.92306 18 9.92306C18.1991 9.92306 18.3901 9.84395 18.531 9.70312C18.6718 9.56229 18.7509 9.37128 18.7509 9.17212C18.7509 8.97295 18.6718 8.78195 18.531 8.64112L12.531 2.64112C12.4613 2.57127 12.3785 2.51586 12.2874 2.47805C12.1963 2.44024 12.0986 2.42078 12 2.42078C11.9013 2.42078 11.8036 2.44024 11.7125 2.47805C11.6214 2.51586 11.5386 2.57127 11.469 2.64112L5.46897 8.64112C5.39924 8.71085 5.34392 8.79363 5.30619 8.88474C5.26845 8.97585 5.24902 9.0735 5.24902 9.17212C5.24902 9.37128 5.32814 9.56229 5.46897 9.70312C5.6098 9.84395 5.80081 9.92306 5.99997 9.92306C6.19913 9.92306 6.39014 9.84395 6.53097 9.70312L11.25 4.98262V22.6721C11.25 22.871 11.329 23.0618 11.4696 23.2024C11.6103 23.3431 11.8011 23.4221 12 23.4221Z" fill="black"/>
</svg>
