<svg width="24" height="25" viewBox="0 0 24 25" fill="none" xmlns="http://www.w3.org/2000/svg">
<path fill-rule="evenodd" clip-rule="evenodd" d="M18.0001 12.9221C18.0001 13.121 17.9211 13.3118 17.7805 13.4524C17.6398 13.5931 17.449 13.6721 17.2501 13.6721H8.56062L11.7811 16.8911C11.8509 16.9608 11.9062 17.0436 11.9439 17.1347C11.9816 17.2258 12.0011 17.3235 12.0011 17.4221C12.0011 17.5207 11.9816 17.6184 11.9439 17.7095C11.9062 17.8006 11.8509 17.8834 11.7811 17.9531C11.7114 18.0228 11.6286 18.0781 11.5375 18.1159C11.4464 18.1536 11.3487 18.173 11.2501 18.173C11.1515 18.173 11.0539 18.1536 10.9627 18.1159C10.8716 18.0781 10.7889 18.0228 10.7191 17.9531L6.21912 13.4531C6.14928 13.3834 6.09386 13.3007 6.05605 13.2095C6.01824 13.1184 5.99878 13.0207 5.99878 12.9221C5.99878 12.8234 6.01824 12.7258 6.05605 12.6346C6.09386 12.5435 6.14928 12.4608 6.21912 12.3911L10.7191 7.89109C10.86 7.75026 11.051 7.67114 11.2501 7.67114C11.4493 7.67114 11.6403 7.75026 11.7811 7.89109C11.922 8.03192 12.0011 8.22293 12.0011 8.42209C12.0011 8.62125 11.922 8.81226 11.7811 8.95309L8.56062 12.1721H17.2501C17.449 12.1721 17.6398 12.2511 17.7805 12.3918C17.9211 12.5324 18.0001 12.7232 18.0001 12.9221Z" fill="black"/>
</svg>
