<svg width="24" height="25" viewBox="0 0 24 25" fill="none" xmlns="http://www.w3.org/2000/svg">
<path fill-rule="evenodd" clip-rule="evenodd" d="M6 12.9221C6 12.7232 6.07902 12.5324 6.21967 12.3918C6.36032 12.2511 6.55109 12.1721 6.75 12.1721H15.4395L12.219 8.95309C12.0782 8.81226 11.9991 8.62125 11.9991 8.42209C11.9991 8.22293 12.0782 8.03192 12.219 7.89109C12.3598 7.75026 12.5508 7.67114 12.75 7.67114C12.9492 7.67114 13.1402 7.75026 13.281 7.89109L17.781 12.3911C17.8508 12.4608 17.9063 12.5435 17.9441 12.6346C17.9819 12.7258 18.0013 12.8234 18.0013 12.9221C18.0013 13.0207 17.9819 13.1184 17.9441 13.2095C17.9063 13.3007 17.8508 13.3834 17.781 13.4531L13.281 17.9531C13.1402 18.0939 12.9492 18.173 12.75 18.173C12.5508 18.173 12.3598 18.0939 12.219 17.9531C12.0782 17.8123 11.9991 17.6213 11.9991 17.4221C11.9991 17.2229 12.0782 17.0319 12.219 16.8911L15.4395 13.6721H6.75C6.55109 13.6721 6.36032 13.5931 6.21967 13.4524C6.07902 13.3118 6 13.121 6 12.9221Z" fill="black"/>
</svg>
