<svg width="24" height="25" viewBox="0 0 24 25" fill="none" xmlns="http://www.w3.org/2000/svg">
<path fill-rule="evenodd" clip-rule="evenodd" d="M12 18.9221C12.1989 18.9221 12.3896 18.8431 12.5303 18.7024C12.671 18.5618 12.75 18.371 12.75 18.1721V9.48262L15.969 12.7031C16.0387 12.7728 16.1215 12.8282 16.2126 12.8659C16.3037 12.9036 16.4014 12.9231 16.5 12.9231C16.5986 12.9231 16.6962 12.9036 16.7873 12.8659C16.8785 12.8282 16.9612 12.7728 17.031 12.7031C17.1007 12.6334 17.156 12.5506 17.1938 12.4595C17.2315 12.3684 17.2509 12.2707 17.2509 12.1721C17.2509 12.0735 17.2315 11.9759 17.1938 11.8847C17.156 11.7936 17.1007 11.7108 17.031 11.6411L12.531 7.14112C12.4613 7.07127 12.3785 7.01586 12.2874 6.97805C12.1963 6.94024 12.0986 6.92078 12 6.92078C11.9013 6.92078 11.8036 6.94024 11.7125 6.97805C11.6214 7.01586 11.5386 7.07127 11.469 7.14112L6.96897 11.6411C6.82814 11.7819 6.74902 11.973 6.74902 12.1721C6.74902 12.3713 6.82814 12.5623 6.96897 12.7031C7.1098 12.8439 7.30081 12.9231 7.49997 12.9231C7.69913 12.9231 7.89014 12.8439 8.03097 12.7031L11.25 9.48262V18.1721C11.25 18.371 11.329 18.5618 11.4696 18.7024C11.6103 18.8431 11.8011 18.9221 12 18.9221Z" fill="black"/>
</svg>
