<svg width="24" height="25" viewBox="0 0 24 25" fill="none" xmlns="http://www.w3.org/2000/svg">
<path fill-rule="evenodd" clip-rule="evenodd" d="M12 2.42212C12.1989 2.42212 12.3896 2.50114 12.5303 2.64179C12.671 2.78244 12.75 2.97321 12.75 3.17212V20.8616L17.469 16.1411C17.6098 16.0003 17.8008 15.9212 18 15.9212C18.1991 15.9212 18.3901 16.0003 18.531 16.1411C18.6718 16.2819 18.7509 16.473 18.7509 16.6721C18.7509 16.8713 18.6718 17.0623 18.531 17.2031L12.531 23.2031C12.4613 23.273 12.3785 23.3284 12.2874 23.3662C12.1963 23.404 12.0986 23.4235 12 23.4235C11.9013 23.4235 11.8036 23.404 11.7125 23.3662C11.6214 23.3284 11.5386 23.273 11.469 23.2031L5.46897 17.2031C5.32814 17.0623 5.24902 16.8713 5.24902 16.6721C5.24902 16.473 5.32814 16.2819 5.46897 16.1411C5.6098 16.0003 5.80081 15.9212 5.99997 15.9212C6.19913 15.9212 6.39014 16.0003 6.53097 16.1411L11.25 20.8616V3.17212C11.25 2.97321 11.329 2.78244 11.4696 2.64179C11.6103 2.50114 11.8011 2.42212 12 2.42212Z" fill="black"/>
</svg>
