<svg width="24" height="25" viewBox="0 0 24 25" fill="none" xmlns="http://www.w3.org/2000/svg">
<path d="M12 24.9221C12.7956 24.9221 13.5587 24.606 14.1213 24.0434C14.6839 23.4808 15 22.7177 15 21.9221H9C9 22.7177 9.31607 23.4808 9.87868 24.0434C10.4413 24.606 11.2044 24.9221 12 24.9221ZM12 3.79909L10.8045 4.04059C9.44818 4.31637 8.22891 5.05258 7.3533 6.12447C6.47769 7.19636 5.99958 8.53802 6 9.92209C6 10.8641 5.799 13.2176 5.3115 15.5351C5.0715 16.6856 4.7475 17.8841 4.317 18.9221H19.683C19.2525 17.8841 18.93 16.6871 18.6885 15.5351C18.201 13.2176 18 10.8641 18 9.92209C18.0001 8.53827 17.5218 7.19697 16.6462 6.12539C15.7706 5.0538 14.5516 4.31781 13.1955 4.04209L12 3.79909ZM21.33 18.9221C21.6645 19.5926 22.0515 20.1236 22.5 20.4221H1.5C1.9485 20.1236 2.3355 19.5926 2.67 18.9221C4.02 16.2221 4.5 11.2421 4.5 9.92209C4.5 6.29209 7.08 3.26209 10.5075 2.57059C10.4866 2.36202 10.5096 2.15138 10.5751 1.95225C10.6405 1.75312 10.747 1.56992 10.8876 1.41448C11.0283 1.25903 11.1999 1.13478 11.3915 1.04975C11.5831 0.964711 11.7904 0.920776 12 0.920776C12.2096 0.920776 12.4169 0.964711 12.6085 1.04975C12.8001 1.13478 12.9717 1.25903 13.1124 1.41448C13.253 1.56992 13.3595 1.75312 13.4249 1.95225C13.4904 2.15138 13.5134 2.36202 13.4925 2.57059C15.1882 2.91492 16.7127 3.83496 17.8075 5.17479C18.9024 6.51461 19.5003 8.1918 19.5 9.92209C19.5 11.2421 19.98 16.2221 21.33 18.9221Z" fill="black"/>
</svg>
