<svg width="24" height="25" viewBox="0 0 24 25" fill="none" xmlns="http://www.w3.org/2000/svg">
<path fill-rule="evenodd" clip-rule="evenodd" d="M9 6.17212C9 5.97321 9.07902 5.78244 9.21967 5.64179C9.36032 5.50114 9.55109 5.42212 9.75 5.42212H21.75C21.9489 5.42212 22.1397 5.50114 22.2803 5.64179C22.421 5.78244 22.5 5.97321 22.5 6.17212V19.6721C22.5 19.871 22.421 20.0618 22.2803 20.2024C22.1397 20.3431 21.9489 20.4221 21.75 20.4221H9.75C9.55109 20.4221 9.36032 20.3431 9.21967 20.2024C9.07902 20.0618 9 19.871 9 19.6721V16.6721C9 16.4732 8.92098 16.2824 8.78033 16.1418C8.63968 16.0011 8.44891 15.9221 8.25 15.9221C8.05109 15.9221 7.86032 16.0011 7.71967 16.1418C7.57902 16.2824 7.5 16.4732 7.5 16.6721V19.6721C7.5 20.2689 7.73705 20.8412 8.15901 21.2631C8.58097 21.6851 9.15326 21.9221 9.75 21.9221H21.75C22.3467 21.9221 22.919 21.6851 23.341 21.2631C23.7629 20.8412 24 20.2689 24 19.6721V6.17212C24 5.57538 23.7629 5.00309 23.341 4.58113C22.919 4.15917 22.3467 3.92212 21.75 3.92212H9.75C9.15326 3.92212 8.58097 4.15917 8.15901 4.58113C7.73705 5.00309 7.5 5.57538 7.5 6.17212V9.17212C7.5 9.37103 7.57902 9.5618 7.71967 9.70245C7.86032 9.8431 8.05109 9.92212 8.25 9.92212C8.44891 9.92212 8.63968 9.8431 8.78033 9.70245C8.92098 9.5618 9 9.37103 9 9.17212V6.17212Z" fill="black"/>
<path fill-rule="evenodd" clip-rule="evenodd" d="M17.781 13.4531C17.8508 13.3834 17.9063 13.3007 17.9441 13.2095C17.9819 13.1184 18.0013 13.0207 18.0013 12.9221C18.0013 12.8234 17.9819 12.7258 17.9441 12.6346C17.9063 12.5435 17.8508 12.4608 17.781 12.3911L13.281 7.89109C13.2113 7.82136 13.1285 7.76604 13.0374 7.72831C12.9463 7.69057 12.8486 7.67114 12.75 7.67114C12.6514 7.67114 12.5537 7.69057 12.4626 7.72831C12.3715 7.76604 12.2887 7.82136 12.219 7.89109C12.1493 7.96082 12.094 8.04361 12.0562 8.13471C12.0185 8.22582 11.9991 8.32347 11.9991 8.42209C11.9991 8.52071 12.0185 8.61836 12.0562 8.70947C12.094 8.80057 12.1493 8.88336 12.219 8.95309L15.4395 12.1721H2.25C2.05109 12.1721 1.86032 12.2511 1.71967 12.3918C1.57902 12.5324 1.5 12.7232 1.5 12.9221C1.5 13.121 1.57902 13.3118 1.71967 13.4524C1.86032 13.5931 2.05109 13.6721 2.25 13.6721H15.4395L12.219 16.8911C12.1493 16.9608 12.094 17.0436 12.0562 17.1347C12.0185 17.2258 11.9991 17.3235 11.9991 17.4221C11.9991 17.5207 12.0185 17.6184 12.0562 17.7095C12.094 17.8006 12.1493 17.8834 12.219 17.9531C12.2887 18.0228 12.3715 18.0781 12.4626 18.1159C12.5537 18.1536 12.6514 18.173 12.75 18.173C12.8486 18.173 12.9463 18.1536 13.0374 18.1159C13.1285 18.0781 13.2113 18.0228 13.281 17.9531L17.781 13.4531Z" fill="black"/>
</svg>
