<svg width="24" height="25" viewBox="0 0 24 25" fill="none" xmlns="http://www.w3.org/2000/svg">
<path fill-rule="evenodd" clip-rule="evenodd" d="M15 19.6721C15 19.871 14.921 20.0618 14.7803 20.2024C14.6397 20.3431 14.4489 20.4221 14.25 20.4221H2.25C2.05109 20.4221 1.86032 20.3431 1.71967 20.2024C1.57902 20.0618 1.5 19.871 1.5 19.6721V6.17212C1.5 5.97321 1.57902 5.78244 1.71967 5.64179C1.86032 5.50114 2.05109 5.42212 2.25 5.42212H14.25C14.4489 5.42212 14.6397 5.50114 14.7803 5.64179C14.921 5.78244 15 5.97321 15 6.17212V9.17212C15 9.37103 15.079 9.5618 15.2197 9.70245C15.3603 9.8431 15.5511 9.92212 15.75 9.92212C15.9489 9.92212 16.1397 9.8431 16.2803 9.70245C16.421 9.5618 16.5 9.37103 16.5 9.17212V6.17212C16.5 5.57538 16.2629 5.00309 15.841 4.58113C15.419 4.15917 14.8467 3.92212 14.25 3.92212H2.25C1.65326 3.92212 1.08097 4.15917 0.65901 4.58113C0.237053 5.00309 0 5.57538 0 6.17212L0 19.6721C0 20.2689 0.237053 20.8412 0.65901 21.2631C1.08097 21.6851 1.65326 21.9221 2.25 21.9221H14.25C14.8467 21.9221 15.419 21.6851 15.841 21.2631C16.2629 20.8412 16.5 20.2689 16.5 19.6721V16.6721C16.5 16.4732 16.421 16.2824 16.2803 16.1418C16.1397 16.0011 15.9489 15.9221 15.75 15.9221C15.5511 15.9221 15.3603 16.0011 15.2197 16.1418C15.079 16.2824 15 16.4732 15 16.6721V19.6721Z" fill="black"/>
<path fill-rule="evenodd" clip-rule="evenodd" d="M23.781 13.4531C23.8508 13.3834 23.9063 13.3007 23.9441 13.2095C23.9819 13.1184 24.0013 13.0207 24.0013 12.9221C24.0013 12.8234 23.9819 12.7258 23.9441 12.6346C23.9063 12.5435 23.8508 12.4608 23.781 12.3911L19.281 7.89109C19.1402 7.75026 18.9492 7.67114 18.75 7.67114C18.5508 7.67114 18.3598 7.75026 18.219 7.89109C18.0782 8.03192 17.9991 8.22293 17.9991 8.42209C17.9991 8.62125 18.0782 8.81226 18.219 8.95309L21.4395 12.1721H8.25C8.05109 12.1721 7.86032 12.2511 7.71967 12.3918C7.57902 12.5324 7.5 12.7232 7.5 12.9221C7.5 13.121 7.57902 13.3118 7.71967 13.4524C7.86032 13.5931 8.05109 13.6721 8.25 13.6721H21.4395L18.219 16.8911C18.0782 17.0319 17.9991 17.2229 17.9991 17.4221C17.9991 17.6213 18.0782 17.8123 18.219 17.9531C18.3598 18.0939 18.5508 18.173 18.75 18.173C18.9492 18.173 19.1402 18.0939 19.281 17.9531L23.781 13.4531Z" fill="black"/>
</svg>
