<svg width="24" height="25" viewBox="0 0 24 25" fill="none" xmlns="http://www.w3.org/2000/svg">
<path d="M5.25 0.922119C5.44891 0.922119 5.63968 1.00114 5.78033 1.14179C5.92098 1.28244 6 1.47321 6 1.67212V2.42212H18V1.67212C18 1.47321 18.079 1.28244 18.2197 1.14179C18.3603 1.00114 18.5511 0.922119 18.75 0.922119C18.9489 0.922119 19.1397 1.00114 19.2803 1.14179C19.421 1.28244 19.5 1.47321 19.5 1.67212V2.42212H21C21.7956 2.42212 22.5587 2.73819 23.1213 3.3008C23.6839 3.86341 24 4.62647 24 5.42212V21.9221C24 22.7178 23.6839 23.4808 23.1213 24.0434C22.5587 24.606 21.7956 24.9221 21 24.9221H3C2.20435 24.9221 1.44129 24.606 0.87868 24.0434C0.316071 23.4808 0 22.7178 0 21.9221V5.42212C0 4.62647 0.316071 3.86341 0.87868 3.3008C1.44129 2.73819 2.20435 2.42212 3 2.42212H4.5V1.67212C4.5 1.47321 4.57902 1.28244 4.71967 1.14179C4.86032 1.00114 5.05109 0.922119 5.25 0.922119ZM3 3.92212C2.60218 3.92212 2.22064 4.08015 1.93934 4.36146C1.65804 4.64276 1.5 5.02429 1.5 5.42212V6.92212H22.5V5.42212C22.5 5.02429 22.342 4.64276 22.0607 4.36146C21.7794 4.08015 21.3978 3.92212 21 3.92212H3ZM22.5 8.42212H1.5V21.9221C1.5 22.3199 1.65804 22.7015 1.93934 22.9828C2.22064 23.2641 2.60218 23.4221 3 23.4221H21C21.3978 23.4221 21.7794 23.2641 22.0607 22.9828C22.342 22.7015 22.5 22.3199 22.5 21.9221V8.42212Z" fill="black"/>
</svg>
