<svg width="24" height="25" viewBox="0 0 24 25" fill="none" xmlns="http://www.w3.org/2000/svg">
<path fill-rule="evenodd" clip-rule="evenodd" d="M0 8.42212C0 7.62647 0.316071 6.86341 0.87868 6.3008C1.44129 5.73819 2.20435 5.42212 3 5.42212H14.25C14.9776 5.42203 15.6805 5.68641 16.2277 6.16601C16.7749 6.64561 17.1292 7.30775 17.2245 8.02912L21.8895 5.95612C22.1178 5.85438 22.368 5.81131 22.6172 5.83085C22.8664 5.85038 23.1068 5.93189 23.3165 6.06796C23.5262 6.20404 23.6986 6.39036 23.8179 6.61C23.9373 6.82965 23.9999 7.07564 24 7.32562V18.5186C23.9998 18.7684 23.9372 19.0142 23.8179 19.2336C23.6986 19.4531 23.5264 19.6393 23.3169 19.7753C23.1074 19.9114 22.8673 19.9929 22.6183 20.0126C22.3693 20.0323 22.1193 19.9895 21.891 19.8881L17.2245 17.8151C17.1292 18.5365 16.7749 19.1986 16.2277 19.6782C15.6805 20.1578 14.9776 20.4222 14.25 20.4221H3C2.20435 20.4221 1.44129 20.106 0.87868 19.5434C0.316071 18.9808 0 18.2178 0 17.4221V8.42212ZM17.25 16.1846L22.5 18.5186V7.32562L17.25 9.65962V16.1846ZM3 6.92212C2.60218 6.92212 2.22064 7.08015 1.93934 7.36146C1.65804 7.64276 1.5 8.02429 1.5 8.42212V17.4221C1.5 17.8199 1.65804 18.2015 1.93934 18.4828C2.22064 18.7641 2.60218 18.9221 3 18.9221H14.25C14.6478 18.9221 15.0294 18.7641 15.3107 18.4828C15.592 18.2015 15.75 17.8199 15.75 17.4221V8.42212C15.75 8.02429 15.592 7.64276 15.3107 7.36146C15.0294 7.08015 14.6478 6.92212 14.25 6.92212H3Z" fill="black"/>
</svg>
