<svg width="24" height="25" viewBox="0 0 24 25" fill="none" xmlns="http://www.w3.org/2000/svg">
<path d="M21 2.42212C21.3978 2.42212 21.7794 2.58015 22.0607 2.86146C22.342 3.14276 22.5 3.52429 22.5 3.92212V15.9221C22.5 16.3199 22.342 16.7015 22.0607 16.9828C21.7794 17.2641 21.3978 17.4221 21 17.4221H6.621C5.82542 17.4223 5.06248 17.7385 4.5 18.3011L1.5 21.3011V3.92212C1.5 3.52429 1.65804 3.14276 1.93934 2.86146C2.22064 2.58015 2.60218 2.42212 3 2.42212H21ZM3 0.922119C2.20435 0.922119 1.44129 1.23819 0.87868 1.8008C0.316071 2.36341 0 3.12647 0 3.92212L0 23.1116C3.15223e-05 23.26 0.0440889 23.4051 0.126596 23.5284C0.209103 23.6518 0.32635 23.7479 0.463499 23.8046C0.600648 23.8613 0.751531 23.876 0.897054 23.8469C1.04258 23.8178 1.1762 23.7462 1.281 23.6411L5.5605 19.3616C5.84174 19.0803 6.22321 18.9222 6.621 18.9221H21C21.7956 18.9221 22.5587 18.606 23.1213 18.0434C23.6839 17.4808 24 16.7178 24 15.9221V3.92212C24 3.12647 23.6839 2.36341 23.1213 1.8008C22.5587 1.23819 21.7956 0.922119 21 0.922119L3 0.922119Z" fill="black"/>
</svg>
