<svg width="24" height="25" viewBox="0 0 24 25" fill="none" xmlns="http://www.w3.org/2000/svg">
<path fill-rule="evenodd" clip-rule="evenodd" d="M2.469 7.89112C2.53867 7.82127 2.62143 7.76586 2.71255 7.72805C2.80367 7.69024 2.90135 7.67078 3 7.67078C3.09865 7.67078 3.19633 7.69024 3.28745 7.72805C3.37857 7.76586 3.46133 7.82127 3.531 7.89112L12 16.3616L20.469 7.89112C20.5387 7.82138 20.6215 7.76607 20.7126 7.72833C20.8037 7.69059 20.9014 7.67117 21 7.67117C21.0986 7.67117 21.1963 7.69059 21.2874 7.72833C21.3785 7.76607 21.4613 7.82138 21.531 7.89112C21.6007 7.96085 21.656 8.04363 21.6938 8.13474C21.7315 8.22585 21.7509 8.3235 21.7509 8.42212C21.7509 8.52073 21.7315 8.61838 21.6938 8.70949C21.656 8.8006 21.6007 8.88338 21.531 8.95312L12.531 17.9531C12.4613 18.023 12.3786 18.0784 12.2874 18.1162C12.1963 18.154 12.0986 18.1735 12 18.1735C11.9013 18.1735 11.8037 18.154 11.7125 18.1162C11.6214 18.0784 11.5387 18.023 11.469 17.9531L2.469 8.95312C2.39915 8.88345 2.34374 8.80069 2.30593 8.70957C2.26812 8.61845 2.24866 8.52077 2.24866 8.42212C2.24866 8.32347 2.26812 8.22578 2.30593 8.13467C2.34374 8.04355 2.39915 7.96079 2.469 7.89112Z" fill="black"/>
</svg>
