<svg width="24" height="25" viewBox="0 0 24 25" fill="none" xmlns="http://www.w3.org/2000/svg">
<path fill-rule="evenodd" clip-rule="evenodd" d="M11.469 7.89112C11.5386 7.82127 11.6214 7.76586 11.7125 7.72805C11.8036 7.69024 11.9013 7.67078 12 7.67078C12.0986 7.67078 12.1963 7.69024 12.2874 7.72805C12.3785 7.76586 12.4613 7.82127 12.531 7.89112L21.531 16.8911C21.6718 17.0319 21.7509 17.223 21.7509 17.4221C21.7509 17.6213 21.6718 17.8123 21.531 17.9531C21.3901 18.0939 21.1991 18.1731 21 18.1731C20.8008 18.1731 20.6098 18.0939 20.469 17.9531L12 9.48262L3.53097 17.9531C3.39014 18.0939 3.19913 18.1731 2.99997 18.1731C2.80081 18.1731 2.6098 18.0939 2.46897 17.9531C2.32814 17.8123 2.24902 17.6213 2.24902 17.4221C2.24902 17.223 2.32814 17.0319 2.46897 16.8911L11.469 7.89112Z" fill="black"/>
</svg>
