<svg width="24" height="25" viewBox="0 0 24 25" fill="none" xmlns="http://www.w3.org/2000/svg">
<path fill-rule="evenodd" clip-rule="evenodd" d="M17.031 3.39112C17.1008 3.46079 17.1563 3.54355 17.1941 3.63467C17.2319 3.72578 17.2513 3.82347 17.2513 3.92212C17.2513 4.02077 17.2319 4.11845 17.1941 4.20957C17.1563 4.30069 17.1008 4.38345 17.031 4.45312L8.5605 12.9221L17.031 21.3911C17.1718 21.5319 17.2509 21.723 17.2509 21.9221C17.2509 22.1213 17.1718 22.3123 17.031 22.4531C16.8902 22.5939 16.6992 22.6731 16.5 22.6731C16.3008 22.6731 16.1098 22.5939 15.969 22.4531L6.969 13.4531C6.89915 13.3834 6.84374 13.3007 6.80593 13.2096C6.76812 13.1184 6.74866 13.0208 6.74866 12.9221C6.74866 12.8235 6.76812 12.7258 6.80593 12.6347C6.84374 12.5435 6.89915 12.4608 6.969 12.3911L15.969 3.39112C16.0387 3.32127 16.1214 3.26586 16.2125 3.22805C16.3037 3.19024 16.4013 3.17078 16.5 3.17078C16.5986 3.17078 16.6963 3.19024 16.7874 3.22805C16.8786 3.26586 16.9613 3.32127 17.031 3.39112Z" fill="black"/>
</svg>
