<svg width="24" height="25" viewBox="0 0 24 25" fill="none" xmlns="http://www.w3.org/2000/svg">
<path fill-rule="evenodd" clip-rule="evenodd" d="M6.969 3.39112C7.03867 3.32127 7.12143 3.26586 7.21255 3.22805C7.30366 3.19024 7.40135 3.17078 7.5 3.17078C7.59865 3.17078 7.69633 3.19024 7.78745 3.22805C7.87857 3.26586 7.96133 3.32127 8.031 3.39112L17.031 12.3911C17.1008 12.4608 17.1563 12.5435 17.1941 12.6347C17.2319 12.7258 17.2513 12.8235 17.2513 12.9221C17.2513 13.0208 17.2319 13.1184 17.1941 13.2096C17.1563 13.3007 17.1008 13.3834 17.031 13.4531L8.031 22.4531C7.89017 22.5939 7.69916 22.6731 7.5 22.6731C7.30083 22.6731 7.10983 22.5939 6.969 22.4531C6.82817 22.3123 6.74905 22.1213 6.74905 21.9221C6.74905 21.723 6.82817 21.5319 6.969 21.3911L15.4395 12.9221L6.969 4.45312C6.89915 4.38345 6.84374 4.30069 6.80593 4.20957C6.76812 4.11845 6.74866 4.02077 6.74866 3.92212C6.74866 3.82347 6.76812 3.72578 6.80593 3.63467C6.84374 3.54355 6.89915 3.46079 6.969 3.39112Z" fill="black"/>
</svg>
