<svg width="24" height="25" viewBox="0 0 24 25" fill="none" xmlns="http://www.w3.org/2000/svg">
<path d="M15.75 12.9221C15.75 13.9167 15.3549 14.8705 14.6517 15.5738C13.9484 16.277 12.9946 16.6721 12 16.6721C11.0054 16.6721 10.0516 16.277 9.34835 15.5738C8.64509 14.8705 8.25 13.9167 8.25 12.9221C8.25 11.9276 8.64509 10.9737 9.34835 10.2705C10.0516 9.56721 11.0054 9.17212 12 9.17212C12.9946 9.17212 13.9484 9.56721 14.6517 10.2705C15.3549 10.9737 15.75 11.9276 15.75 12.9221Z" fill="black"/>
<path d="M0 12.9221C0 12.9221 4.5 4.67212 12 4.67212C19.5 4.67212 24 12.9221 24 12.9221C24 12.9221 19.5 21.1721 12 21.1721C4.5 21.1721 0 12.9221 0 12.9221ZM12 18.1721C13.3924 18.1721 14.7277 17.619 15.7123 16.6344C16.6969 15.6499 17.25 14.3145 17.25 12.9221C17.25 11.5297 16.6969 10.1944 15.7123 9.20981C14.7277 8.22524 13.3924 7.67212 12 7.67212C10.6076 7.67212 9.27226 8.22524 8.28769 9.20981C7.30312 10.1944 6.75 11.5297 6.75 12.9221C6.75 14.3145 7.30312 15.6499 8.28769 16.6344C9.27226 17.619 10.6076 18.1721 12 18.1721Z" fill="black"/>
</svg>
