<svg width="24" height="25" viewBox="0 0 24 25" fill="none" xmlns="http://www.w3.org/2000/svg">
<path d="M16.185 20.2901L13.764 17.8676C12.8278 18.2024 11.8157 18.2643 10.8456 18.0464C9.87554 17.8284 8.98729 17.3394 8.28423 16.6364C7.58117 15.9333 7.09221 15.0451 6.87424 14.075C6.65628 13.1049 6.71827 12.0929 7.053 11.1566L3.963 8.06662C1.407 10.3391 0 12.9221 0 12.9221C0 12.9221 4.5 21.1721 12 21.1721C13.4407 21.1684 14.8653 20.8681 16.185 20.2901ZM7.815 5.55412C9.13472 4.97611 10.5593 4.67589 12 4.67212C19.5 4.67212 24 12.9221 24 12.9221C24 12.9221 22.5915 15.5036 20.0385 17.7791L16.9455 14.6861C17.2802 13.7499 17.3422 12.7378 17.1243 11.7677C16.9063 10.7977 16.4173 9.90941 15.7143 9.20635C15.0112 8.50329 14.123 8.01433 13.1529 7.79636C12.1828 7.5784 11.1707 7.64039 10.2345 7.97512L7.815 5.55412Z" fill="black"/>
<path d="M8.28749 12.3911C8.20498 12.9676 8.25786 13.5553 8.44194 14.1078C8.62602 14.6603 8.93623 15.1623 9.34801 15.5741C9.75979 15.9859 10.2618 16.2961 10.8143 16.4802C11.3668 16.6642 11.9545 16.7171 12.531 16.6346L8.28749 12.3911ZM15.7125 13.4531L11.469 9.20811C12.0455 9.1256 12.6332 9.17848 13.1857 9.36256C13.7382 9.54664 14.2402 9.85685 14.652 10.2686C15.0638 10.6804 15.374 11.1824 15.5581 11.7349C15.7421 12.2874 15.795 12.8751 15.7125 13.4516V13.4531ZM20.469 22.4531L2.46899 4.45311L3.53099 3.39111L21.531 21.3911L20.469 22.4531Z" fill="black"/>
</svg>
