<svg width="24" height="25" viewBox="0 0 24 25" fill="none" xmlns="http://www.w3.org/2000/svg">
<path d="M18 3.92212H15V8.42212H18V3.92212Z" fill="black"/>
<path d="M2.25 0.922119C1.65326 0.922119 1.08097 1.15917 0.65901 1.58113C0.237053 2.00309 0 2.57538 0 3.17212L0 22.6721C0 23.2689 0.237053 23.8412 0.65901 24.2631C1.08097 24.6851 1.65326 24.9221 2.25 24.9221H21.75C22.3467 24.9221 22.919 24.6851 23.341 24.2631C23.7629 23.8412 24 23.2689 24 22.6721V5.29312C23.9995 4.69658 23.7621 4.12467 23.34 3.70312L21.2205 1.58062C21.0115 1.37172 20.7633 1.20604 20.4903 1.09306C20.2172 0.980071 19.9245 0.921985 19.629 0.922119H2.25ZM6 9.92212C5.60218 9.92212 5.22064 9.76408 4.93934 9.48278C4.65804 9.20147 4.5 8.81994 4.5 8.42212V2.42212H19.5V8.42212C19.5 8.81994 19.342 9.20147 19.0607 9.48278C18.7794 9.76408 18.3978 9.92212 18 9.92212H6ZM4.5 14.4221H19.5C19.8978 14.4221 20.2794 14.5802 20.5607 14.8615C20.842 15.1428 21 15.5243 21 15.9221V23.4221H3V15.9221C3 15.5243 3.15804 15.1428 3.43934 14.8615C3.72064 14.5802 4.10218 14.4221 4.5 14.4221Z" fill="black"/>
</svg>
