<svg width="24" height="25" viewBox="0 0 24 25" fill="none" xmlns="http://www.w3.org/2000/svg">
<path d="M16.5 3.92212H13.5V8.42212H16.5V3.92212Z" fill="black"/>
<path d="M2.25 0.922119H19.629C20.2255 0.922644 20.7974 1.16004 21.219 1.58212L23.3415 3.70312C23.763 4.12492 23.9999 4.6968 24 5.29312V22.6721C24 23.2689 23.7629 23.8412 23.341 24.2631C22.919 24.6851 22.3467 24.9221 21.75 24.9221H2.25C1.65326 24.9221 1.08097 24.6851 0.65901 24.2631C0.237053 23.8412 0 23.2689 0 22.6721L0 3.17212C0 2.57538 0.237053 2.00309 0.65901 1.58113C1.08097 1.15917 1.65326 0.922119 2.25 0.922119ZM1.5 3.17212V22.6721C1.5 22.871 1.57902 23.0618 1.71967 23.2024C1.86032 23.3431 2.05109 23.4221 2.25 23.4221H3V16.6721C3 16.0754 3.23705 15.5031 3.65901 15.0811C4.08097 14.6592 4.65326 14.4221 5.25 14.4221H18.75C19.3467 14.4221 19.919 14.6592 20.341 15.0811C20.7629 15.5031 21 16.0754 21 16.6721V23.4221H21.75C21.9489 23.4221 22.1397 23.3431 22.2803 23.2024C22.421 23.0618 22.5 22.871 22.5 22.6721V5.29312C22.5 5.09459 22.4212 4.90418 22.281 4.76362L20.1585 2.64112C20.0179 2.50092 19.8275 2.42216 19.629 2.42212H19.5V9.17212C19.5 9.76886 19.2629 10.3412 18.841 10.7631C18.419 11.1851 17.8467 11.4221 17.25 11.4221H6.75C6.15326 11.4221 5.58097 11.1851 5.15901 10.7631C4.73705 10.3412 4.5 9.76886 4.5 9.17212V2.42212H2.25C2.05109 2.42212 1.86032 2.50114 1.71967 2.64179C1.57902 2.78244 1.5 2.97321 1.5 3.17212ZM6 9.17212C6 9.37103 6.07902 9.5618 6.21967 9.70245C6.36032 9.8431 6.55109 9.92212 6.75 9.92212H17.25C17.4489 9.92212 17.6397 9.8431 17.7803 9.70245C17.921 9.5618 18 9.37103 18 9.17212V2.42212H6V9.17212ZM4.5 23.4221H19.5V16.6721C19.5 16.4732 19.421 16.2824 19.2803 16.1418C19.1397 16.0011 18.9489 15.9221 18.75 15.9221H5.25C5.05109 15.9221 4.86032 16.0011 4.71967 16.1418C4.57902 16.2824 4.5 16.4732 4.5 16.6721V23.4221Z" fill="black"/>
</svg>
