<svg width="24" height="25" viewBox="0 0 24 25" fill="none" xmlns="http://www.w3.org/2000/svg">
<path d="M23.3175 10.7593C23.4576 11.5648 23.5273 12.3808 23.526 13.1983C23.526 16.8493 22.221 19.9363 19.95 22.0258H19.953C17.967 23.8603 15.237 24.9223 12 24.9223C8.8174 24.9223 5.76516 23.6581 3.51472 21.4076C1.26428 19.1572 0 16.1049 0 12.9223C0 9.73975 1.26428 6.6875 3.51472 4.43707C5.76516 2.18663 8.8174 0.922348 12 0.922348C14.9786 0.889177 17.8548 2.00807 20.028 4.04535L16.602 7.47135C15.3633 6.29123 13.7107 5.64482 12 5.67135C8.8695 5.67135 6.21 7.78335 5.262 10.6273C4.76024 12.1178 4.76024 13.7314 5.262 15.2218H5.2665C6.219 18.0613 8.874 20.1733 12.0045 20.1733C13.6215 20.1733 15.0105 19.7593 16.0875 19.0273H16.083C16.7085 18.6132 17.2435 18.0765 17.6558 17.4498C18.068 16.823 18.3489 16.1192 18.4815 15.3808H12V10.7608L23.3175 10.7593Z" fill="black"/>
</svg>
