<svg width="24" height="25" viewBox="0 0 24 25" fill="none" xmlns="http://www.w3.org/2000/svg">
<path d="M11.9998 5.04419L10.9243 3.93869C8.39984 1.34369 3.77084 2.23919 2.09984 5.50169C1.31534 7.03619 1.13834 9.25169 2.57084 12.0792C3.95084 14.8017 6.82184 18.0627 11.9998 21.6147C17.1778 18.0627 20.0473 14.8017 21.4288 12.0792C22.8613 9.25019 22.6858 7.03619 21.8998 5.50169C20.2288 2.23919 15.5998 1.34219 13.0753 3.93719L11.9998 5.04419ZM11.9998 23.4222C-10.9997 8.22419 4.91834 -3.63781 11.7358 2.63669C11.8258 2.71969 11.9138 2.80519 11.9998 2.89319C12.0843 2.80464 12.1724 2.71957 12.2638 2.63819C19.0798 -3.64081 34.9993 8.22269 11.9998 23.4222Z" fill="black"/>
</svg>
