<svg width="24" height="25" viewBox="0 0 24 25" fill="none" xmlns="http://www.w3.org/2000/svg">
<path d="M13.0605 3.17209C12.7792 2.89088 12.3977 2.73291 12 2.73291C11.6022 2.73291 11.2208 2.89088 10.9395 3.17209L0.968971 13.1411C0.899239 13.2108 0.843925 13.2936 0.806186 13.3847C0.768447 13.4758 0.749023 13.5735 0.749023 13.6721C0.749023 13.7707 0.768447 13.8684 0.806186 13.9595C0.843925 14.0506 0.899239 14.1334 0.968971 14.2031C1.1098 14.3439 1.30081 14.423 1.49997 14.423C1.59859 14.423 1.69624 14.4036 1.78735 14.3659C1.87846 14.3281 1.96124 14.2728 2.03097 14.2031L2.99997 13.2326V21.1721C2.99997 21.7688 3.23702 22.3411 3.65898 22.7631C4.08094 23.185 4.65323 23.4221 5.24997 23.4221H18.75C19.3467 23.4221 19.919 23.185 20.341 22.7631C20.7629 22.3411 21 21.7688 21 21.1721V13.2326L21.969 14.2031C22.1098 14.3439 22.3008 14.423 22.5 14.423C22.6991 14.423 22.8901 14.3439 23.031 14.2031C23.1718 14.0623 23.2509 13.8713 23.2509 13.6721C23.2509 13.4729 23.1718 13.2819 23.031 13.1411L19.5 9.61159V4.67209C19.5 4.47318 19.421 4.28241 19.2803 4.14176C19.1396 4.00111 18.9489 3.92209 18.75 3.92209H17.25C17.0511 3.92209 16.8603 4.00111 16.7196 4.14176C16.579 4.28241 16.5 4.47318 16.5 4.67209V6.61159L13.0605 3.17209ZM19.5 11.7326V21.1721C19.5 21.371 19.421 21.5618 19.2803 21.7024C19.1396 21.8431 18.9489 21.9221 18.75 21.9221H5.24997C5.05106 21.9221 4.86029 21.8431 4.71964 21.7024C4.57899 21.5618 4.49997 21.371 4.49997 21.1721V11.7326L12 4.23259L19.5 11.7326Z" fill="black"/>
</svg>
