<svg width="24" height="25" viewBox="0 0 24 25" fill="none" xmlns="http://www.w3.org/2000/svg">
<path d="M6.75305 14.4221C7.34979 14.4221 7.92209 14.1851 8.34404 13.7631C8.766 13.3412 9.00305 12.7689 9.00305 12.1721C9.00305 11.5754 8.766 11.0031 8.34404 10.5811C7.92209 10.1592 7.34979 9.92212 6.75305 9.92212C6.15631 9.92212 5.58402 10.1592 5.16206 10.5811C4.7401 11.0031 4.50305 11.5754 4.50305 12.1721C4.50305 12.7689 4.7401 13.3412 5.16206 13.7631C5.58402 14.1851 6.15631 14.4221 6.75305 14.4221Z" fill="black"/>
<path d="M21.0031 20.4221C21.0031 21.2178 20.687 21.9808 20.1244 22.5434C19.5618 23.106 18.7987 23.4221 18.0031 23.4221H3.00305C2.2074 23.4221 1.44434 23.106 0.881731 22.5434C0.319122 21.9808 0.00305176 21.2178 0.00305176 20.4221V8.42212C0.00305136 7.62699 0.31871 6.86438 0.880671 6.30186C1.44263 5.73934 2.20492 5.42291 3.00005 5.42212C3.00005 4.62647 3.31612 3.86341 3.87873 3.3008C4.44134 2.73819 5.2044 2.42212 6.00005 2.42212H21.0001C21.7957 2.42212 22.5588 2.73819 23.1214 3.3008C23.684 3.86341 24.0001 4.62647 24.0001 5.42212V17.4221C24.0001 18.2172 23.6844 18.9799 23.1224 19.5424C22.5605 20.1049 21.7982 20.4213 21.0031 20.4221ZM21.0001 3.92212H6.00005C5.60223 3.92212 5.2207 4.08015 4.93939 4.36146C4.65809 4.64276 4.50005 5.02429 4.50005 5.42212H18.0031C18.7987 5.42212 19.5618 5.73819 20.1244 6.3008C20.687 6.86341 21.0031 7.62647 21.0031 8.42212V18.9221C21.4004 18.9213 21.7811 18.7629 22.0618 18.4817C22.3424 18.2005 22.5001 17.8194 22.5001 17.4221V5.42212C22.5001 5.02429 22.342 4.64276 22.0607 4.36146C21.7794 4.08015 21.3979 3.92212 21.0001 3.92212ZM3.00305 6.92212C2.60523 6.92212 2.2237 7.08015 1.94239 7.36146C1.66109 7.64276 1.50305 8.02429 1.50305 8.42212V20.4221L5.47205 16.8911C5.59465 16.769 5.75572 16.693 5.92796 16.676C6.10019 16.6591 6.27299 16.7022 6.41705 16.7981L10.4071 19.4576L15.9721 13.8926C16.0833 13.7813 16.2267 13.7078 16.382 13.6824C16.5374 13.6571 16.6967 13.6813 16.8376 13.7516L19.5031 16.6721V8.42212C19.5031 8.02429 19.345 7.64276 19.0637 7.36146C18.7824 7.08015 18.4009 6.92212 18.0031 6.92212H3.00305Z" fill="black"/>
</svg>
