<svg width="24" height="25" viewBox="0 0 24 25" fill="none" xmlns="http://www.w3.org/2000/svg">
<path d="M12 23.4221C9.21523 23.4221 6.54451 22.3159 4.57538 20.3467C2.60625 18.3776 1.5 15.7069 1.5 12.9221C1.5 10.1373 2.60625 7.46663 4.57538 5.4975C6.54451 3.52837 9.21523 2.42212 12 2.42212C14.7848 2.42212 17.4555 3.52837 19.4246 5.4975C21.3938 7.46663 22.5 10.1373 22.5 12.9221C22.5 15.7069 21.3938 18.3776 19.4246 20.3467C17.4555 22.3159 14.7848 23.4221 12 23.4221ZM12 24.9221C15.1826 24.9221 18.2348 23.6578 20.4853 21.4074C22.7357 19.157 24 16.1047 24 12.9221C24 9.73952 22.7357 6.68727 20.4853 4.43684C18.2348 2.1864 15.1826 0.922119 12 0.922119C8.8174 0.922119 5.76516 2.1864 3.51472 4.43684C1.26428 6.68727 0 9.73952 0 12.9221C0 16.1047 1.26428 19.157 3.51472 21.4074C5.76516 23.6578 8.8174 24.9221 12 24.9221Z" fill="black"/>
<path d="M13.3951 10.8041L9.96005 11.2346L9.83705 11.8046L10.5121 11.9291C10.9531 12.0341 11.0401 12.1931 10.9441 12.6326L9.83705 17.8346C9.54605 19.1801 9.99455 19.8131 11.0491 19.8131C11.8666 19.8131 12.8161 19.4351 13.2466 18.9161L13.3785 18.2921C13.0785 18.5561 12.6405 18.6611 12.3495 18.6611C11.937 18.6611 11.7871 18.3716 11.8935 17.8616L13.3951 10.8041ZM13.5001 7.67212C13.5001 8.06994 13.342 8.45147 13.0607 8.73278C12.7794 9.01408 12.3979 9.17212 12.0001 9.17212C11.6022 9.17212 11.2207 9.01408 10.9394 8.73278C10.6581 8.45147 10.5001 8.06994 10.5001 7.67212C10.5001 7.27429 10.6581 6.89276 10.9394 6.61146C11.2207 6.33015 11.6022 6.17212 12.0001 6.17212C12.3979 6.17212 12.7794 6.33015 13.0607 6.61146C13.342 6.89276 13.5001 7.27429 13.5001 7.67212Z" fill="black"/>
</svg>
