<svg width="24" height="25" viewBox="0 0 24 25" fill="none" xmlns="http://www.w3.org/2000/svg">
<path fill-rule="evenodd" clip-rule="evenodd" d="M3.75 18.9221C3.75 18.7232 3.82902 18.5324 3.96967 18.3918C4.11032 18.2511 4.30109 18.1721 4.5 18.1721H19.5C19.6989 18.1721 19.8897 18.2511 20.0303 18.3918C20.171 18.5324 20.25 18.7232 20.25 18.9221C20.25 19.121 20.171 19.3118 20.0303 19.4524C19.8897 19.5931 19.6989 19.6721 19.5 19.6721H4.5C4.30109 19.6721 4.11032 19.5931 3.96967 19.4524C3.82902 19.3118 3.75 19.121 3.75 18.9221ZM3.75 12.9221C3.75 12.7232 3.82902 12.5324 3.96967 12.3918C4.11032 12.2511 4.30109 12.1721 4.5 12.1721H19.5C19.6989 12.1721 19.8897 12.2511 20.0303 12.3918C20.171 12.5324 20.25 12.7232 20.25 12.9221C20.25 13.121 20.171 13.3118 20.0303 13.4524C19.8897 13.5931 19.6989 13.6721 19.5 13.6721H4.5C4.30109 13.6721 4.11032 13.5931 3.96967 13.4524C3.82902 13.3118 3.75 13.121 3.75 12.9221ZM3.75 6.92212C3.75 6.72321 3.82902 6.53244 3.96967 6.39179C4.11032 6.25114 4.30109 6.17212 4.5 6.17212H19.5C19.6989 6.17212 19.8897 6.25114 20.0303 6.39179C20.171 6.53244 20.25 6.72321 20.25 6.92212C20.25 7.12103 20.171 7.3118 20.0303 7.45245C19.8897 7.5931 19.6989 7.67212 19.5 7.67212H4.5C4.30109 7.67212 4.11032 7.5931 3.96967 7.45245C3.82902 7.3118 3.75 7.12103 3.75 6.92212Z" fill="black"/>
</svg>
