<svg width="24" height="25" viewBox="0 0 24 25" fill="none" xmlns="http://www.w3.org/2000/svg">
<path d="M23.2531 3.8321C23.3932 3.97268 23.4719 4.16309 23.4719 4.3616C23.4719 4.5601 23.3932 4.75051 23.2531 4.8911L21.6886 6.4571L18.6886 3.4571L20.2531 1.8911C20.3937 1.7505 20.5844 1.67151 20.7833 1.67151C20.9822 1.67151 21.1729 1.7505 21.3136 1.8911L23.2531 3.8306V3.8321ZM20.6281 7.5161L17.6281 4.5161L7.40856 14.7371C7.32601 14.8196 7.26386 14.9203 7.22706 15.0311L6.01956 18.6521C5.99766 18.7181 5.99455 18.7889 6.01058 18.8566C6.02661 18.9243 6.06114 18.9862 6.11032 19.0353C6.1595 19.0845 6.22139 19.1191 6.28907 19.1351C6.35675 19.1511 6.42755 19.148 6.49356 19.1261L10.1146 17.9186C10.2252 17.8822 10.3259 17.8206 10.4086 17.7386L20.6281 7.5161Z" fill="black"/>
<path fill-rule="evenodd" clip-rule="evenodd" d="M1.5 21.1721C1.5 21.7689 1.73705 22.3412 2.15901 22.7631C2.58097 23.1851 3.15326 23.4221 3.75 23.4221H20.25C20.8467 23.4221 21.419 23.1851 21.841 22.7631C22.2629 22.3412 22.5 21.7689 22.5 21.1721V12.1721C22.5 11.9732 22.421 11.7824 22.2803 11.6418C22.1397 11.5011 21.9489 11.4221 21.75 11.4221C21.5511 11.4221 21.3603 11.5011 21.2197 11.6418C21.079 11.7824 21 11.9732 21 12.1721V21.1721C21 21.371 20.921 21.5618 20.7803 21.7024C20.6397 21.8431 20.4489 21.9221 20.25 21.9221H3.75C3.55109 21.9221 3.36032 21.8431 3.21967 21.7024C3.07902 21.5618 3 21.371 3 21.1721V4.67212C3 4.47321 3.07902 4.28244 3.21967 4.14179C3.36032 4.00114 3.55109 3.92212 3.75 3.92212H13.5C13.6989 3.92212 13.8897 3.8431 14.0303 3.70245C14.171 3.5618 14.25 3.37103 14.25 3.17212C14.25 2.97321 14.171 2.78244 14.0303 2.64179C13.8897 2.50114 13.6989 2.42212 13.5 2.42212H3.75C3.15326 2.42212 2.58097 2.65917 2.15901 3.08113C1.73705 3.50309 1.5 4.07538 1.5 4.67212V21.1721Z" fill="black"/>
</svg>
