<svg width="24" height="25" viewBox="0 0 24 25" fill="none" xmlns="http://www.w3.org/2000/svg">
<path d="M12 12.9221C13.1935 12.9221 14.3381 12.448 15.182 11.6041C16.0259 10.7602 16.5 9.61559 16.5 8.42212C16.5 7.22864 16.0259 6.08405 15.182 5.24014C14.3381 4.39623 13.1935 3.92212 12 3.92212C10.8065 3.92212 9.66193 4.39623 8.81802 5.24014C7.97411 6.08405 7.5 7.22864 7.5 8.42212C7.5 9.61559 7.97411 10.7602 8.81802 11.6041C9.66193 12.448 10.8065 12.9221 12 12.9221ZM15 8.42212C15 9.21777 14.6839 9.98083 14.1213 10.5434C13.5587 11.106 12.7956 11.4221 12 11.4221C11.2044 11.4221 10.4413 11.106 9.87868 10.5434C9.31607 9.98083 9 9.21777 9 8.42212C9 7.62647 9.31607 6.86341 9.87868 6.3008C10.4413 5.73819 11.2044 5.42212 12 5.42212C12.7956 5.42212 13.5587 5.73819 14.1213 6.3008C14.6839 6.86341 15 7.62647 15 8.42212ZM21 20.4221C21 21.9221 19.5 21.9221 19.5 21.9221H4.5C4.5 21.9221 3 21.9221 3 20.4221C3 18.9221 4.5 14.4221 12 14.4221C19.5 14.4221 21 18.9221 21 20.4221ZM19.5 20.4161C19.4985 20.0471 19.269 18.9371 18.252 17.9201C17.274 16.9421 15.4335 15.9221 12 15.9221C8.5665 15.9221 6.726 16.9421 5.748 17.9201C4.731 18.9371 4.503 20.0471 4.5 20.4161H19.5Z" fill="black"/>
</svg>
