<svg width="24" height="25" viewBox="0 0 24 25" fill="none" xmlns="http://www.w3.org/2000/svg">
<path d="M21 2.42212C21.3978 2.42212 21.7794 2.58015 22.0607 2.86146C22.342 3.14276 22.5 3.52429 22.5 3.92212V21.9221C22.5 22.3199 22.342 22.7015 22.0607 22.9828C21.7794 23.2641 21.3978 23.4221 21 23.4221H3C2.60218 23.4221 2.22064 23.2641 1.93934 22.9828C1.65804 22.7015 1.5 22.3199 1.5 21.9221V3.92212C1.5 3.52429 1.65804 3.14276 1.93934 2.86146C2.22064 2.58015 2.60218 2.42212 3 2.42212H21ZM3 0.922119C2.20435 0.922119 1.44129 1.23819 0.87868 1.8008C0.316071 2.36341 0 3.12647 0 3.92212L0 21.9221C0 22.7178 0.316071 23.4808 0.87868 24.0434C1.44129 24.606 2.20435 24.9221 3 24.9221H21C21.7956 24.9221 22.5587 24.606 23.1213 24.0434C23.6839 23.4808 24 22.7178 24 21.9221V3.92212C24 3.12647 23.6839 2.36341 23.1213 1.8008C22.5587 1.23819 21.7956 0.922119 21 0.922119L3 0.922119Z" fill="black"/>
<path d="M12 6.92212C12.1989 6.92212 12.3897 7.00114 12.5303 7.14179C12.671 7.28244 12.75 7.47321 12.75 7.67212V12.1721H17.25C17.4489 12.1721 17.6397 12.2511 17.7803 12.3918C17.921 12.5324 18 12.7232 18 12.9221C18 13.121 17.921 13.3118 17.7803 13.4524C17.6397 13.5931 17.4489 13.6721 17.25 13.6721H12.75V18.1721C12.75 18.371 12.671 18.5618 12.5303 18.7024C12.3897 18.8431 12.1989 18.9221 12 18.9221C11.8011 18.9221 11.6103 18.8431 11.4697 18.7024C11.329 18.5618 11.25 18.371 11.25 18.1721V13.6721H6.75C6.55109 13.6721 6.36032 13.5931 6.21967 13.4524C6.07902 13.3118 6 13.121 6 12.9221C6 12.7232 6.07902 12.5324 6.21967 12.3918C6.36032 12.2511 6.55109 12.1721 6.75 12.1721H11.25V7.67212C11.25 7.47321 11.329 7.28244 11.4697 7.14179C11.6103 7.00114 11.8011 6.92212 12 6.92212Z" fill="black"/>
</svg>
