<svg width="24" height="25" viewBox="0 0 24 25" fill="none" xmlns="http://www.w3.org/2000/svg">
<g clip-path="url(#clip0_276_1788)">
<path d="M12 23.4221C9.21523 23.4221 6.54451 22.3159 4.57538 20.3467C2.60625 18.3776 1.5 15.7069 1.5 12.9221C1.5 10.1373 2.60625 7.46663 4.57538 5.4975C6.54451 3.52837 9.21523 2.42212 12 2.42212C14.7848 2.42212 17.4555 3.52837 19.4246 5.4975C21.3938 7.46663 22.5 10.1373 22.5 12.9221C22.5 15.7069 21.3938 18.3776 19.4246 20.3467C17.4555 22.3159 14.7848 23.4221 12 23.4221ZM12 24.9221C15.1826 24.9221 18.2348 23.6578 20.4853 21.4074C22.7357 19.157 24 16.1047 24 12.9221C24 9.73952 22.7357 6.68727 20.4853 4.43684C18.2348 2.1864 15.1826 0.922119 12 0.922119C8.8174 0.922119 5.76516 2.1864 3.51472 4.43684C1.26428 6.68727 0 9.73952 0 12.9221C0 16.1047 1.26428 19.157 3.51472 21.4074C5.76516 23.6578 8.8174 24.9221 12 24.9221Z" fill="black"/>
<path d="M12 6.92212C12.1989 6.92212 12.3897 7.00114 12.5303 7.14179C12.671 7.28244 12.75 7.47321 12.75 7.67212V12.1721H17.25C17.4489 12.1721 17.6397 12.2511 17.7803 12.3918C17.921 12.5324 18 12.7232 18 12.9221C18 13.121 17.921 13.3118 17.7803 13.4524C17.6397 13.5931 17.4489 13.6721 17.25 13.6721H12.75V18.1721C12.75 18.371 12.671 18.5618 12.5303 18.7024C12.3897 18.8431 12.1989 18.9221 12 18.9221C11.8011 18.9221 11.6103 18.8431 11.4697 18.7024C11.329 18.5618 11.25 18.371 11.25 18.1721V13.6721H6.75C6.55109 13.6721 6.36032 13.5931 6.21967 13.4524C6.07902 13.3118 6 13.121 6 12.9221C6 12.7232 6.07902 12.5324 6.21967 12.3918C6.36032 12.2511 6.55109 12.1721 6.75 12.1721H11.25V7.67212C11.25 7.47321 11.329 7.28244 11.4697 7.14179C11.6103 7.00114 11.8011 6.92212 12 6.92212Z" fill="black"/>
</g>
<defs>
<clipPath id="clip0_276_1788">
<rect width="24" height="24" fill="white" transform="translate(0 0.922119)"/>
</clipPath>
</defs>
</svg>
