<svg width="24" height="25" viewBox="0 0 24 25" fill="none" xmlns="http://www.w3.org/2000/svg">
<path d="M17.613 16.4381C19.0654 14.4562 19.716 11.9989 19.4345 9.55787C19.1529 7.11686 17.9601 4.87216 16.0947 3.27284C14.2292 1.67353 11.8286 0.837553 9.37326 0.932163C6.91789 1.02677 4.58878 2.04499 2.85191 3.78311C1.11503 5.52123 0.0984798 7.85106 0.00562703 10.3065C-0.0872257 12.7619 0.750468 15.1619 2.35112 17.0262C3.95176 18.8905 6.19732 20.0818 8.63853 20.3615C11.0797 20.6413 13.5366 19.989 15.5175 18.5351H15.516C15.56 18.5951 15.609 18.6526 15.663 18.7076L21.438 24.4826C21.7193 24.7641 22.1008 24.9223 22.4987 24.9225C22.8966 24.9226 23.2783 24.7647 23.5598 24.4834C23.8412 24.2021 23.9994 23.8206 23.9996 23.4227C23.9997 23.0248 23.8418 22.6431 23.5605 22.3616L17.7855 16.5866C17.7319 16.5323 17.6742 16.4837 17.613 16.4381ZM18 10.6721C18 11.7556 17.7866 12.8284 17.372 13.8293C16.9574 14.8302 16.3497 15.7397 15.5836 16.5058C14.8176 17.2719 13.9081 17.8796 12.9071 18.2942C11.9062 18.7088 10.8334 18.9221 9.75 18.9221C8.6666 18.9221 7.5938 18.7088 6.59287 18.2942C5.59193 17.8796 4.68246 17.2719 3.91637 16.5058C3.15029 15.7397 2.5426 14.8302 2.128 13.8293C1.7134 12.8284 1.5 11.7556 1.5 10.6721C1.5 8.48411 2.3692 6.38569 3.91637 4.83852C5.46355 3.29134 7.56197 2.42215 9.75 2.42215C11.938 2.42215 14.0365 3.29134 15.5836 4.83852C17.1308 6.38569 18 8.48411 18 10.6721Z" fill="black"/>
</svg>
