<svg width="24" height="25" viewBox="0 0 24 25" fill="none" xmlns="http://www.w3.org/2000/svg">
<path d="M23.781 1.1411C23.8849 1.2451 23.9559 1.37731 23.9852 1.52132C24.0145 1.66532 24.0009 1.81477 23.946 1.9511L15.2175 23.7716C15.1406 23.9638 15.0122 24.131 14.8463 24.2549C14.6805 24.3787 14.4837 24.4544 14.2776 24.4737C14.0715 24.4929 13.8641 24.4549 13.6782 24.3638C13.4923 24.2728 13.3352 24.1322 13.224 23.9576L8.45702 16.4651L0.96452 11.6981C0.789496 11.5871 0.648547 11.4299 0.557224 11.2438C0.465902 11.0577 0.427756 10.8501 0.446997 10.6437C0.466238 10.4373 0.542117 10.2403 0.666261 10.0743C0.790405 9.90831 0.957989 9.77986 1.15052 9.7031L22.971 0.9776C23.1073 0.922718 23.2568 0.909098 23.4008 0.938433C23.5448 0.967767 23.677 1.03876 23.781 1.1426V1.1411ZM9.95402 16.0271L14.0955 22.5341L21.195 4.7861L9.95402 16.0271ZM20.1345 3.7256L2.38652 10.8251L8.89502 14.9651L20.1345 3.7256Z" fill="black"/>
</svg>
