<svg width="24" height="25" viewBox="0 0 24 25" fill="none" xmlns="http://www.w3.org/2000/svg">
<path d="M20.2502 2.42222C19.6534 2.42222 19.0811 2.65928 18.6592 3.08123C18.2372 3.50319 18.0002 4.07549 18.0002 4.67222C18.0002 5.26896 18.2372 5.84126 18.6592 6.26321C19.0811 6.68517 19.6534 6.92222 20.2502 6.92222C20.8469 6.92222 21.4192 6.68517 21.8411 6.26321C22.2631 5.84126 22.5002 5.26896 22.5002 4.67222C22.5002 4.07549 22.2631 3.50319 21.8411 3.08123C21.4192 2.65928 20.8469 2.42222 20.2502 2.42222ZM16.5002 4.67222C16.5 3.79237 16.8093 2.9405 17.3739 2.26564C17.9384 1.59078 18.7223 1.13592 19.5883 0.98063C20.4543 0.82534 21.3474 0.979514 22.1112 1.41618C22.8751 1.85284 23.4611 2.54419 23.7667 3.36926C24.0723 4.19433 24.078 5.10059 23.7829 5.92948C23.4879 6.75837 22.9107 7.45711 22.1525 7.90344C21.3942 8.34977 20.5032 8.51528 19.6352 8.371C18.7673 8.22673 17.9777 7.78186 17.4047 7.11422L7.32765 11.7942C7.55922 12.5284 7.55922 13.316 7.32765 14.0502L17.4047 18.7302C18.0104 18.0257 18.8561 17.5712 19.7779 17.4547C20.6997 17.3382 21.632 17.5681 22.3939 18.0998C23.1559 18.6314 23.6934 19.427 23.9022 20.3324C24.1109 21.2378 23.9762 22.1884 23.524 23.0001C23.0719 23.8118 22.3345 24.4267 21.4548 24.7257C20.5751 25.0246 19.6157 24.9864 18.7626 24.6183C17.9095 24.2503 17.2233 23.5786 16.8372 22.7335C16.4511 21.8884 16.3925 20.9301 16.6727 20.0442L6.59565 15.3642C6.09681 15.9456 5.43188 16.3602 4.69032 16.5524C3.94876 16.7445 3.16615 16.7049 2.44776 16.4389C1.72937 16.173 1.10967 15.6934 0.672015 15.0647C0.234362 14.4359 -0.000244141 13.6883 -0.000244141 12.9222C-0.000244141 12.1562 0.234362 11.4085 0.672015 10.7798C1.10967 10.1511 1.72937 9.67148 2.44776 9.40551C3.16615 9.13954 3.94876 9.09996 4.69032 9.2921C5.43188 9.48423 6.09681 9.89887 6.59565 10.4802L16.6727 5.80022C16.5579 5.43523 16.4998 5.05482 16.5002 4.67222ZM3.75015 10.6722C3.15342 10.6722 2.58112 10.9093 2.15916 11.3312C1.73721 11.7532 1.50015 12.3255 1.50015 12.9222C1.50015 13.519 1.73721 14.0913 2.15916 14.5132C2.58112 14.9352 3.15342 15.1722 3.75015 15.1722C4.34689 15.1722 4.91919 14.9352 5.34114 14.5132C5.7631 14.0913 6.00015 13.519 6.00015 12.9222C6.00015 12.3255 5.7631 11.7532 5.34114 11.3312C4.91919 10.9093 4.34689 10.6722 3.75015 10.6722ZM20.2502 18.9222C19.6534 18.9222 19.0811 19.1593 18.6592 19.5812C18.2372 20.0032 18.0002 20.5755 18.0002 21.1722C18.0002 21.769 18.2372 22.3413 18.6592 22.7632C19.0811 23.1852 19.6534 23.4222 20.2502 23.4222C20.8469 23.4222 21.4192 23.1852 21.8411 22.7632C22.2631 22.3413 22.5002 21.769 22.5002 21.1722C22.5002 20.5755 22.2631 20.0032 21.8411 19.5812C21.4192 19.1593 20.8469 18.9222 20.2502 18.9222Z" fill="black"/>
</svg>
