<svg width="24" height="25" viewBox="0 0 24 25" fill="none" xmlns="http://www.w3.org/2000/svg">
<path fill-rule="evenodd" clip-rule="evenodd" d="M2.82747 1.6886C3.08994 1.42653 3.4051 1.22323 3.75207 1.09218C4.09904 0.961128 4.46991 0.905311 4.84008 0.92843C5.21026 0.951548 5.5713 1.05307 5.89927 1.22628C6.22724 1.39948 6.51466 1.64041 6.74247 1.9331L9.43497 5.3921C9.92847 6.0266 10.1025 6.8531 9.90747 7.6331L9.08697 10.9181C9.04485 11.0883 9.04729 11.2664 9.09406 11.4353C9.14082 11.6043 9.23034 11.7583 9.35397 11.8826L13.0395 15.5681C13.1639 15.692 13.3182 15.7816 13.4874 15.8284C13.6567 15.8752 13.8351 15.8775 14.0055 15.8351L17.289 15.0146C17.6739 14.9189 18.0756 14.9117 18.4637 14.9936C18.8519 15.0754 19.2164 15.2441 19.53 15.4871L22.989 18.1781C24.2325 19.1456 24.3465 20.9831 23.2335 22.0946L21.6825 23.6456C20.5725 24.7556 18.9135 25.2431 17.367 24.6986C13.408 23.3075 9.81378 21.0412 6.85197 18.0686C3.87953 15.1072 1.6133 11.5136 0.221974 7.5551C-0.321026 6.0101 0.166474 4.3496 1.27647 3.2396L2.82747 1.6886Z" fill="black"/>
</svg>
