<svg width="24" height="25" viewBox="0 0 24 25" fill="none" xmlns="http://www.w3.org/2000/svg">
<path d="M5.48122 2.91432C5.39267 2.80041 5.28089 2.70665 5.15332 2.63925C5.02575 2.57186 4.8853 2.53239 4.7413 2.52345C4.59729 2.51451 4.45304 2.53632 4.31811 2.58741C4.18319 2.63851 4.06067 2.71773 3.95872 2.81982L2.40772 4.37232C1.68322 5.09832 1.41622 6.12582 1.73272 7.02732C3.04781 10.758 5.18445 14.1454 7.98472 16.9393C10.7786 19.7396 14.1661 21.8762 17.8967 23.1913C18.7982 23.5078 19.8257 23.2408 20.5517 22.5163L22.1027 20.9653C22.2048 20.8634 22.284 20.7409 22.3351 20.6059C22.3862 20.471 22.408 20.3267 22.3991 20.1827C22.3901 20.0387 22.3507 19.8983 22.2833 19.7707C22.2159 19.6431 22.1221 19.5314 22.0082 19.4428L18.5477 16.7518C18.4259 16.6576 18.2844 16.5922 18.1337 16.5605C17.983 16.5288 17.8271 16.5317 17.6777 16.5688L14.3927 17.3893C13.9542 17.4982 13.495 17.492 13.0596 17.3714C12.6242 17.2507 12.2272 17.0198 11.9072 16.7008L8.22322 13.0153C7.90399 12.6955 7.67274 12.2986 7.55186 11.8632C7.43098 11.4277 7.42456 10.9685 7.53322 10.5298L8.35522 7.24482C8.39236 7.0954 8.39519 6.9395 8.36349 6.78883C8.3318 6.63816 8.26641 6.49662 8.17222 6.37482L5.48122 2.91432ZM2.82622 1.68882C3.08871 1.42624 3.40406 1.22251 3.75133 1.09116C4.09859 0.959806 4.46983 0.903833 4.84039 0.926957C5.21095 0.950081 5.57235 1.05177 5.90059 1.22528C6.22883 1.39879 6.51641 1.64014 6.74422 1.93332L9.43522 5.39232C9.92872 6.02682 10.1027 6.85332 9.90772 7.63332L9.08722 10.9183C9.04509 11.0885 9.04753 11.2666 9.0943 11.4356C9.14107 11.6045 9.23059 11.7585 9.35422 11.8828L13.0397 15.5683C13.1641 15.6922 13.3184 15.7819 13.4877 15.8286C13.6569 15.8754 13.8353 15.8777 14.0057 15.8353L17.2892 15.0148C17.6742 14.9191 18.0758 14.9119 18.464 14.9938C18.8521 15.0756 19.2167 15.2444 19.5302 15.4873L22.9892 18.1783C24.2327 19.1458 24.3467 20.9833 23.2337 22.0948L21.6827 23.6458C20.5727 24.7558 18.9137 25.2433 17.3672 24.6988C13.4082 23.3077 9.81403 21.0414 6.85222 18.0688C3.87978 15.1074 1.61355 11.5138 0.222218 7.55532C-0.320782 6.01032 0.166718 4.34982 1.27672 3.23982L2.82622 1.68882Z" fill="black"/>
</svg>
