<svg width="24" height="25" viewBox="0 0 24 25" fill="none" xmlns="http://www.w3.org/2000/svg">
<path d="M4.5 15.1721C3.90326 15.1721 3.33097 14.9351 2.90901 14.5131C2.48705 14.0912 2.25 13.5189 2.25 12.9221C2.25 12.3254 2.48705 11.7531 2.90901 11.3311C3.33097 10.9092 3.90326 10.6721 4.5 10.6721C5.09674 10.6721 5.66903 10.9092 6.09099 11.3311C6.51295 11.7531 6.75 12.3254 6.75 12.9221C6.75 13.5189 6.51295 14.0912 6.09099 14.5131C5.66903 14.9351 5.09674 15.1721 4.5 15.1721ZM12 15.1721C11.4033 15.1721 10.831 14.9351 10.409 14.5131C9.98705 14.0912 9.75 13.5189 9.75 12.9221C9.75 12.3254 9.98705 11.7531 10.409 11.3311C10.831 10.9092 11.4033 10.6721 12 10.6721C12.5967 10.6721 13.169 10.9092 13.591 11.3311C14.0129 11.7531 14.25 12.3254 14.25 12.9221C14.25 13.5189 14.0129 14.0912 13.591 14.5131C13.169 14.9351 12.5967 15.1721 12 15.1721ZM19.5 15.1721C18.9033 15.1721 18.331 14.9351 17.909 14.5131C17.4871 14.0912 17.25 13.5189 17.25 12.9221C17.25 12.3254 17.4871 11.7531 17.909 11.3311C18.331 10.9092 18.9033 10.6721 19.5 10.6721C20.0967 10.6721 20.669 10.9092 21.091 11.3311C21.5129 11.7531 21.75 12.3254 21.75 12.9221C21.75 13.5189 21.5129 14.0912 21.091 14.5131C20.669 14.9351 20.0967 15.1721 19.5 15.1721Z" fill="black"/>
</svg>
