<svg width="24" height="25" viewBox="0 0 24 25" fill="none" xmlns="http://www.w3.org/2000/svg">
<path d="M14.25 20.4221C14.25 21.0189 14.0129 21.5912 13.591 22.0131C13.169 22.4351 12.5967 22.6721 12 22.6721C11.4033 22.6721 10.831 22.4351 10.409 22.0131C9.98705 21.5912 9.75 21.0189 9.75 20.4221C9.75 19.8254 9.98705 19.2531 10.409 18.8311C10.831 18.4092 11.4033 18.1721 12 18.1721C12.5967 18.1721 13.169 18.4092 13.591 18.8311C14.0129 19.2531 14.25 19.8254 14.25 20.4221ZM14.25 12.9221C14.25 13.5189 14.0129 14.0912 13.591 14.5131C13.169 14.9351 12.5967 15.1721 12 15.1721C11.4033 15.1721 10.831 14.9351 10.409 14.5131C9.98705 14.0912 9.75 13.5189 9.75 12.9221C9.75 12.3254 9.98705 11.7531 10.409 11.3311C10.831 10.9092 11.4033 10.6721 12 10.6721C12.5967 10.6721 13.169 10.9092 13.591 11.3311C14.0129 11.7531 14.25 12.3254 14.25 12.9221ZM14.25 5.42212C14.25 6.01886 14.0129 6.59115 13.591 7.01311C13.169 7.43507 12.5967 7.67212 12 7.67212C11.4033 7.67212 10.831 7.43507 10.409 7.01311C9.98705 6.59115 9.75 6.01886 9.75 5.42212C9.75 4.82538 9.98705 4.25309 10.409 3.83113C10.831 3.40917 11.4033 3.17212 12 3.17212C12.5967 3.17212 13.169 3.40917 13.591 3.83113C14.0129 4.25309 14.25 4.82538 14.25 5.42212Z" fill="black"/>
</svg>
