<svg width="24" height="25" viewBox="0 0 24 25" fill="none" xmlns="http://www.w3.org/2000/svg">
<path d="M12 2.42212C9.9233 2.42212 7.89323 3.03793 6.16652 4.19169C4.4398 5.34544 3.09399 6.98532 2.29927 8.90394C1.50455 10.8226 1.29661 12.9338 1.70176 14.9706C2.1069 17.0074 3.10693 18.8783 4.57538 20.3467C6.04383 21.8152 7.91476 22.8152 9.95156 23.2204C11.9884 23.6255 14.0996 23.4176 16.0182 22.6229C17.9368 21.8281 19.5767 20.4823 20.7304 18.7556C21.8842 17.0289 22.5 14.9988 22.5 12.9221C22.5 10.1373 21.3938 7.46663 19.4246 5.4975C17.4555 3.52837 14.7848 2.42212 12 2.42212ZM12 21.9221C10.22 21.9221 8.47992 21.3943 6.99987 20.4053C5.51983 19.4164 4.36628 18.0108 3.68509 16.3663C3.0039 14.7217 2.82567 12.9121 3.17294 11.1663C3.5202 9.42048 4.37737 7.81683 5.63604 6.55816C6.89472 5.29949 8.49836 4.44232 10.2442 4.09505C11.99 3.74778 13.7996 3.92601 15.4442 4.6072C17.0887 5.28839 18.4943 6.44194 19.4832 7.92199C20.4722 9.40203 21 11.1421 21 12.9221C21 15.3091 20.0518 17.5983 18.364 19.2861C16.6761 20.9739 14.387 21.9221 12 21.9221Z" fill="black"/>
<path d="M11.25 6.92212H12.75V15.1721H11.25V6.92212ZM12 17.4221C11.7775 17.4221 11.56 17.4881 11.375 17.6117C11.19 17.7353 11.0458 17.911 10.9606 18.1166C10.8755 18.3222 10.8532 18.5484 10.8966 18.7666C10.94 18.9848 11.0472 19.1853 11.2045 19.3426C11.3618 19.4999 11.5623 19.6071 11.7805 19.6505C11.9988 19.6939 12.225 19.6716 12.4305 19.5865C12.6361 19.5013 12.8118 19.3571 12.9354 19.1721C13.059 18.9871 13.125 18.7696 13.125 18.5471C13.125 18.2488 13.0065 17.9626 12.7955 17.7516C12.5845 17.5406 12.2984 17.4221 12 17.4221Z" fill="black"/>
</svg>
