<svg width="24" height="25" viewBox="0 0 24 25" fill="none" xmlns="http://www.w3.org/2000/svg">
<path d="M6.969 7.89112C7.03867 7.82127 7.12143 7.76586 7.21255 7.72805C7.30366 7.69024 7.40135 7.67078 7.5 7.67078C7.59865 7.67078 7.69633 7.69024 7.78745 7.72805C7.87857 7.76586 7.96133 7.82127 8.031 7.89112L12 11.8616L15.969 7.89112C16.0387 7.82138 16.1215 7.76607 16.2126 7.72833C16.3037 7.69059 16.4014 7.67117 16.5 7.67117C16.5986 7.67117 16.6963 7.69059 16.7874 7.72833C16.8785 7.76607 16.9613 7.82138 17.031 7.89112C17.1007 7.96085 17.156 8.04363 17.1938 8.13474C17.2315 8.22585 17.2509 8.3235 17.2509 8.42212C17.2509 8.52073 17.2315 8.61838 17.1938 8.70949C17.156 8.8006 17.1007 8.88338 17.031 8.95312L13.0605 12.9221L17.031 16.8911C17.1007 16.9608 17.156 17.0436 17.1938 17.1347C17.2315 17.2259 17.2509 17.3235 17.2509 17.4221C17.2509 17.5207 17.2315 17.6184 17.1938 17.7095C17.156 17.8006 17.1007 17.8834 17.031 17.9531C16.9613 18.0228 16.8785 18.0782 16.7874 18.1159C16.6963 18.1536 16.5986 18.1731 16.5 18.1731C16.4014 18.1731 16.3037 18.1536 16.2126 18.1159C16.1215 18.0782 16.0387 18.0228 15.969 17.9531L12 13.9826L8.031 17.9531C7.96127 18.0228 7.87848 18.0782 7.78737 18.1159C7.69626 18.1536 7.59861 18.1731 7.5 18.1731C7.40138 18.1731 7.30373 18.1536 7.21262 18.1159C7.12151 18.0782 7.03873 18.0228 6.969 17.9531C6.89927 17.8834 6.84395 17.8006 6.80621 17.7095C6.76847 17.6184 6.74905 17.5207 6.74905 17.4221C6.74905 17.3235 6.76847 17.2259 6.80621 17.1347C6.84395 17.0436 6.89927 16.9608 6.969 16.8911L10.9395 12.9221L6.969 8.95312C6.89915 8.88345 6.84374 8.80068 6.80593 8.70957C6.76812 8.61845 6.74866 8.52077 6.74866 8.42212C6.74866 8.32347 6.76812 8.22578 6.80593 8.13467C6.84374 8.04355 6.89915 7.96079 6.969 7.89112Z" fill="black"/>
</svg>
