<?xml version="1.0" standalone="no"?>
<!DOCTYPE svg PUBLIC "-//W3C//DTD SVG 20010904//EN"
 "http://www.w3.org/TR/2001/REC-SVG-20010904/DTD/svg10.dtd">
<svg version="1.0" xmlns="http://www.w3.org/2000/svg"
 width="620.000000pt" height="620.000000pt" viewBox="0 0 620.000000 620.000000"
 preserveAspectRatio="xMidYMid meet">
<metadata>
Created by potrace 1.14, written by Peter Selinger 2001-2017
</metadata>
<g transform="translate(0.000000,620.000000) scale(0.100000,-0.100000)"
fill="#000000" stroke="none">
<path d="M554 6189 c-69 -11 -178 -57 -248 -104 -148 -98 -249 -244 -290 -421
-14 -63 -15 -305 -13 -2594 l2 -2525 22 -62 c72 -203 195 -341 380 -425 134
-61 -19 -57 2698 -57 2740 -1 2550 -5 2692 59 196 88 328 249 383 465 20 77
20 112 20 2574 0 2746 4 2556 -60 2698 -87 192 -243 323 -457 383 -66 19 -136
19 -2573 18 -1378 0 -2528 -4 -2556 -9z"/>
</g>
</svg>
